#!OML:ASF H:\Terrain\Patient Classification 1\Walking\steve\steve.ASF
:FULLY-SPECIFIED
:DEGREES
199
root 8.11063 16.4864 15.3807 3.96311 -5.15313 3.4326
lowerback 1.84653 1.94849 -4.27818
upperback -2.73982 2.41424 -0.795811
thorax -4.00826 1.31533 1.44164
lowerneck -10.3451 -1.33735 -3.28172
upperneck 17.1867 -2.44737 6.46919
head 7.07491 -0.826488 2.42013
rclavicle -1.37344e-014 -1.15792e-014
rhumerus -48.6293 -18.2687 -75.1221
rradius 27.1667
rwrist 7.27626
rhand 175.886 -67.8272
rfingers 7.12502
rthumb -158.355 -39.017
lclavicle -1.37344e-014 -1.15792e-014
lhumerus -25.9169 3.62434 84.7048
lradius 25.5106
lwrist 2.39174
lhand -24.3982 -17.4279
lfingers 7.12502
lthumb 2.09283 12.5416
rfemur -35.8541 1.09165 18.9989
rtibia 64.5689
rfoot -13.3432 0.686471
rtoes -19.9855
lfemur -10.106 2.09934 -29.3414
ltibia 28.2782
lfoot -19.2383 -3.84106
ltoes 2.7247
200
root 8.1104 16.4867 15.6137 3.97146 -4.74705 3.74608
lowerback 1.88188 1.82724 -4.73455
upperback -2.77004 2.23444 -0.728989
thorax -4.07218 1.24218 1.77347
lowerneck -10.2182 -1.26216 -3.16459
upperneck 17.0726 -2.33276 6.31753
head 7.00653 -0.78045 2.36052
rclavicle 5.79783e-014 -2.88238e-015
rhumerus -49.9328 -20.418 -72.5006
rradius 25.0712
rwrist 10.3088
rhand 175.466 -68.3944
rfingers 7.12502
rthumb -158.759 -39.5383
lclavicle 5.79783e-014 -2.88238e-015
lhumerus -24.6098 1.78307 85.3641
lradius 27.5964
lwrist 5.57147
lhand -24.1598 -16.5364
lfingers 7.12502
lthumb 2.32306 13.4307
rfemur -36.6729 0.944667 18.8068
rtibia 62.1707
rfoot -14.7708 0.773923
rtoes -18.7289
lfemur -8.78989 2.85097 -29.6675
ltibia 27.4584
lfoot -19.0691 -4.70311
ltoes 2.38527
201
root 8.10824 16.4768 15.8412 4.14535 -4.20603 3.769
lowerback 1.71055 1.65304 -4.88398
upperback -2.75003 2.01031 -0.638792
thorax -3.9483 1.13407 1.96904
lowerneck -10.3257 -1.26746 -2.77064
upperneck 17.1121 -2.32587 5.86088
head 7.0292 -0.788805 2.14656
rclavicle -2.48504e-014 1.2921e-014
rhumerus -51.3201 -22.6259 -69.6842
rradius 23.1268
rwrist 13.4316
rhand 174.576 -68.5263
rfingers 7.12502
rthumb -159.614 -39.5764
lclavicle -2.48504e-014 1.2921e-014
lhumerus -23.2803 0.0129766 85.8074
lradius 29.6872
lwrist 8.45421
lhand -24.5045 -15.992
lfingers 7.12502
lthumb 1.99017 13.9785
rfemur -37.5164 0.825963 18.9143
rtibia 59.4522
rfoot -15.7298 0.314489
rtoes -18.2003
lfemur -7.63511 3.32456 -29.6411
ltibia 26.6804
lfoot -18.772 -5.53473
ltoes 3.03085
202
root 8.09575 16.4669 16.0668 4.35699 -3.62701 3.6617
lowerback 1.54348 1.42945 -5.01761
upperback -2.75608 1.72114 -0.518939
thorax -3.84757 0.994212 2.18815
lowerneck -10.4329 -1.32837 -2.48332
upperneck 17.2073 -2.39682 5.49613
head 7.07523 -0.833173 1.97374
rclavicle 2.16706e-014 -2.03754e-014
rhumerus -52.8517 -25.1044 -66.3923
rradius 21.3081
rwrist 16.8043
rhand 173.792 -68.4157
rfingers 7.12502
rthumb -160.368 -39.387
lclavicle 2.16706e-014 -2.03754e-014
lhumerus -21.931 -1.45067 85.9944
lradius 31.6053
lwrist 10.9801
lhand -24.7556 -15.7547
lfingers 7.12502
lthumb 1.74763 14.2179
rfemur -38.2191 0.843341 19.1672
rtibia 56.3842
rfoot -16.2333 -0.804478
rtoes -18.0793
lfemur -6.50244 3.29077 -29.427
ltibia 25.8311
lfoot -18.4187 -6.22229
ltoes 5.43316
203
root 8.07867 16.4692 16.2959 4.32696 -3.21202 3.43129
lowerback 1.60269 1.29581 -5.04561
upperback -2.69984 1.54563 -0.350857
thorax -3.81488 0.908737 2.38658
lowerneck -10.2858 -1.32108 -2.56916
upperneck 17.0216 -2.39209 5.64518
head 6.99161 -0.828076 2.03589
rclavicle 2.28556e-014 -2.98177e-016
rhumerus -54.5996 -27.2222 -63.0682
rradius 19.7052
rwrist 20.4707
rhand 173.412 -68.2779
rfingers 7.12502
rthumb -160.733 -39.2123
lclavicle 2.28556e-014 -2.98177e-016
lhumerus -20.6242 -2.89822 86.111
lradius 33.5548
lwrist 13.2895
lhand -25.0989 -15.5759
lfingers 7.12502
lthumb 1.41608 14.3992
rfemur -38.4198 1.12253 19.5004
rtibia 53.0229
rfoot -16.9524 -1.45715
rtoes -17.813
lfemur -5.11422 3.5353 -29.0021
ltibia 24.8758
lfoot -18.1223 -6.84354
ltoes 6.18344
204
root 8.06717 16.4759 16.5286 4.20509 -2.71957 3.47207
lowerback 1.84765 1.22253 -5.2356
upperback -2.68804 1.4289 -0.277463
thorax -3.94005 0.85994 2.57013
lowerneck -10.094 -1.37434 -2.72422
upperneck 16.8224 -2.46264 5.82001
head 6.90042 -0.862266 2.11105
rclavicle -9.17671e-015 1.37161e-014
rhumerus -57.1929 -29.4876 -58.7751
rradius 18.3687
rwrist 25.2157
rhand 173.776 -68.6349
rfingers 7.12502
rthumb -160.383 -39.6046
lclavicle -9.17671e-015 1.37161e-014
lhumerus -19.4254 -4.22209 86.2367
lradius 35.5626
lwrist 15.5091
lhand -25.4363 -15.4826
lfingers 7.12502
lthumb 1.09016 14.4944
rfemur -38.4627 1.18972 19.4463
rtibia 49.532
rfoot -17.7962 -1.14281
rtoes -17.086
lfemur -3.52034 4.24006 -28.7803
ltibia 23.7233
lfoot -17.7909 -7.8973
ltoes 5.43561
205
root 8.05834 16.4752 16.7645 4.37231 -2.05252 3.64088
lowerback 1.90387 1.06878 -5.5474
upperback -2.84725 1.20391 -0.255157
thorax -4.12826 0.765477 2.77765
lowerneck -9.99216 -1.44972 -2.49774
upperneck 16.8955 -2.56103 5.54937
head 6.90464 -0.918789 1.97745
rclavicle 6.98542e-015 1.19271e-015
rhumerus -61.325 -32.9737 -51.6688
rradius 16.891
rwrist 31.9617
rhand 173.975 -69.6723
rfingers 7.12502
rthumb -160.191 -40.6617
lclavicle 6.98542e-015 1.19271e-015
lhumerus -18.3566 -5.23543 86.2441
lradius 37.5058
lwrist 17.6687
lhand -25.4134 -15.6018
lfingers 7.12502
lthumb 1.11226 14.3751
rfemur -38.7838 1.01992 19.1899
rtibia 46.0156
rfoot -18.1708 -0.656323
rtoes -15.5167
lfemur -1.99072 4.33399 -28.7574
ltibia 22.2633
lfoot -17.4095 -8.65374
ltoes 4.87311
206
root 8.05097 16.4543 17.0024 4.55773 -1.30569 3.81768
lowerback 1.6752 0.823674 -5.81781
upperback -2.85959 0.881868 -0.245634
thorax -3.98832 0.610377 2.96063
lowerneck -9.79785 -1.42045 -2.3904
upperneck 16.765 -2.53362 5.54135
head 6.82587 -0.904125 1.95915
rclavicle 4.65902e-017 -5.96354e-015
rhumerus -65.6089 -35.8125 -44.5686
rradius 15.7124
rwrist 37.96
rhand 173.715 -70.0103
rfingers 7.12502
rthumb -160.441 -40.9741
lclavicle 4.65902e-017 -5.96354e-015
lhumerus -17.1387 -6.15677 86.1096
lradius 39.2738
lwrist 19.3152
lhand -25.6784 -15.9534
lfingers 7.12502
lthumb 0.856371 14.0246
rfemur -39.0745 0.860544 18.8686
rtibia 42.5658
rfoot -18.1818 -0.0814496
rtoes -12.36
lfemur -0.226237 4.07229 -28.8134
ltibia 20.4643
lfoot -17.102 -9.00432
ltoes 2.74661
207
root 8.04443 16.44 17.2424 4.60111 -0.383938 4.22602
lowerback 1.46186 0.52 -6.18124
upperback -2.73238 0.47998 -0.361091
thorax -3.7005 0.408318 3.06828
lowerneck -9.61666 -1.40186 -2.48054
upperneck 16.4512 -2.53956 5.87863
head 6.69887 -0.891532 2.08099
rclavicle -8.88008e-015 -3.8763e-015
rhumerus -67.9669 -36.2817 -41.6701
rradius 15.504
rwrist 40.2135
rhand 174.053 -69.4553
rfingers 7.12502
rthumb -160.116 -40.4524
lclavicle -8.88008e-015 -3.8763e-015
lhumerus -15.6523 -7.07795 85.7774
lradius 40.6981
lwrist 20.2677
lhand -25.9201 -15.7798
lfingers 7.12502
lthumb 0.622922 14.1991
rfemur -39.1817 0.529953 18.2642
rtibia 39.2453
rfoot -18.093 0.120446
rtoes -12.0677
lfemur 1.79876 4.24957 -28.9666
ltibia 18.3937
lfoot -16.2874 -9.78967
ltoes 1.0416
208
root 8.03257 16.4475 17.4816 4.71473 0.482557 4.28405
lowerback 1.3291 0.278627 -6.2527
upperback -2.6708 0.167186 -0.38652
thorax -3.5303 0.247879 3.09745
lowerneck -9.78929 -1.52713 -2.37564
upperneck 16.3971 -2.7348 5.93586
head 6.72068 -0.97224 2.06378
rclavicle 5.33923e-015 6.16232e-015
rhumerus -69.9359 -36.2917 -39.6559
rradius 15.6004
rwrist 41.646
rhand 175.022 -68.6771
rfingers 7.12502
rthumb -159.186 -39.7736
lclavicle 5.33923e-015 6.16232e-015
lhumerus -14.117 -7.96583 85.388
lradius 42.062
lwrist 21.3427
lhand -25.4728 -15.1286
lfingers 7.12502
lthumb 1.05497 14.8485
rfemur -39.2989 0.420023 17.998
rtibia 36.0848
rfoot -17.9963 -0.289058
rtoes -15.0647
lfemur 3.87313 4.42085 -28.6318
ltibia 15.9889
lfoot -14.77 -10.7752
ltoes 3.96502
209
root 8.02107 16.4517 17.7195 4.96694 0.954185 4.17365
lowerback 1.22483 0.191393 -6.32924
upperback -2.77776 0.0570858 -0.230811
thorax -3.57285 0.201319 3.30671
lowerneck -9.79338 -1.65872 -2.3179
upperneck 16.2844 -2.87258 5.67187
head 6.68708 -1.05835 1.95602
rclavicle 8.24258e-015 1.98785e-016
rhumerus -73.2958 -37.0894 -34.7252
rradius 15.2313
rwrist 44.7856
rhand 175.349 -68.1856
rfingers 7.12502
rthumb -158.872 -39.3168
lclavicle 8.24258e-015 1.98785e-016
lhumerus -12.9279 -8.79609 85.3012
lradius 43.6452
lwrist 22.7451
lhand -25.1593 -15.1885
lfingers 7.12502
lthumb 1.35772 14.7869
rfemur -39.6998 0.872571 17.7669
rtibia 33.2225
rfoot -17.9877 -0.518566
rtoes -15.1535
lfemur 6.00809 4.18256 -28.2923
ltibia 13.1224
lfoot -13.2385 -10.9046
ltoes 7.2199
210
root 8.0167 16.4589 17.9563 5.21409 1.54428 4.16503
lowerback 1.27752 0.0743399 -6.39932
upperback -3.02562 -0.110552 -0.106366
thorax -3.84463 0.136125 3.48266
lowerneck -9.32518 -1.69386 -2.44173
upperneck 16.0504 -2.8815 5.60511
head 6.53094 -1.08627 1.95543
rclavicle 7.90169e-015 2.98177e-015
rhumerus -76.0665 -36.9868 -31.0732
rradius 15.1165
rwrist 46.217
rhand 174.959 -68.5293
rfingers 7.12502
rthumb -159.246 -39.6192
lclavicle 7.90169e-015 2.98177e-015
lhumerus -12.0522 -9.78415 85.2433
lradius 45.2489
lwrist 23.9212
lhand -25.4791 -15.5275
lfingers 7.12502
lthumb 1.04889 14.4496
rfemur -40.1559 1.07471 17.4034
rtibia 30.6991
rfoot -17.9395 -0.502936
rtoes -13.042
lfemur 8.31925 3.42082 -28.184
ltibia 9.74066
lfoot -11.9357 -10.1297
ltoes 6.21155
211
root 8.01327 16.4546 18.1911 5.40966 2.3778 4.10483
lowerback 1.09332 -0.146493 -6.26292
upperback -3.0146 -0.386138 -0.0862064
thorax -3.69821 -0.00961197 3.4383
lowerneck -9.04617 -1.71464 -2.5185
upperneck 15.6212 -2.91992 5.84437
head 6.35186 -1.10072 2.04075
rclavicle 5.03484e-015 -3.97569e-016
rhumerus -76.4309 -36.0301 -31.7572
rradius 15.5736
rwrist 44.2237
rhand 174.516 -68.7253
rfingers 7.12502
rthumb -159.671 -39.7692
lclavicle 5.03484e-015 -3.97569e-016
lhumerus -10.7419 -10.951 84.8325
lradius 46.5994
lwrist 24.9331
lhand -25.8613 -15.5672
lfingers 7.12502
lthumb 0.679733 14.4115
rfemur -40.6049 0.711175 17.3263
rtibia 28.5511
rfoot -17.5857 -0.211474
rtoes -11.1476
lfemur 11.3676 2.43221 -28.0234
ltibia 5.03793
lfoot -9.957 -9.25433
ltoes 5.80737
212
root 8.01382 16.4364 18.4342 5.6822 2.94387 4.18627
lowerback 0.481683 -0.338191 -6.23431
upperback -2.77651 -0.588311 -0.123412
thorax -3.08234 -0.136225 3.38531
lowerneck -9.28006 -1.8123 -2.55771
upperneck 15.2146 -3.0495 5.99753
head 6.27287 -1.15559 2.08182
rclavicle 2.604e-015 6.36111e-015
rhumerus -78.4137 -36.596 -28.7676
rradius 15.3638
rwrist 45.7597
rhand 174.552 -68.9499
rfingers 7.12502
rthumb -159.637 -39.9975
lclavicle 2.604e-015 6.36111e-015
lhumerus -9.17764 -11.7465 84.2806
lradius 47.92
lwrist 25.6709
lhand -25.9594 -15.5427
lfingers 7.12502
lthumb 0.584947 14.4363
rfemur -41.2339 -0.0768189 17.4724
rtibia 26.8775
rfoot -17.2662 0.746995
rtoes -9.8669
lfemur 14.6387 1.6969 -28.1139
ltibia -2.54444e-014
lfoot -7.70531 -8.36816
ltoes 6.56467
